<svg width="224" height="77" viewBox="0 0 224 77" fill="none" xmlns="http://www.w3.org/2000/svg">
<g opacity="0.4" filter="url(#filter0_dd_141_23)">
<rect x="9" y="28" width="148" height="36" rx="4" fill="white"/>
<path d="M131.505 43.5801C132.103 43.5801 132.625 43.6967 133.073 43.9301C133.531 44.1541 133.885 44.4994 134.137 44.9661C134.399 45.4327 134.529 46.0207 134.529 46.7301V51.0001H133.535V46.8281C133.535 46.0534 133.339 45.4701 132.947 45.0781C132.565 44.6767 132.023 44.4761 131.323 44.4761C130.801 44.4761 130.343 44.5834 129.951 44.7981C129.569 45.0034 129.27 45.3067 129.055 45.7081C128.85 46.1001 128.747 46.5761 128.747 47.1361V51.0001H127.753V43.6501H128.705V45.6661L128.551 45.2881C128.785 44.7561 129.158 44.3407 129.671 44.0421C130.185 43.7341 130.796 43.5801 131.505 43.5801Z" fill="#171A1F"/>
<path d="M123.993 51.0001V43.6501H124.987V51.0001H123.993ZM124.497 42.0261C124.292 42.0261 124.119 41.9561 123.979 41.8161C123.839 41.6761 123.769 41.5081 123.769 41.3121C123.769 41.1161 123.839 40.9527 123.979 40.8221C124.119 40.6821 124.292 40.6121 124.497 40.6121C124.703 40.6121 124.875 40.6774 125.015 40.8081C125.155 40.9387 125.225 41.1021 125.225 41.2981C125.225 41.5034 125.155 41.6761 125.015 41.8161C124.885 41.9561 124.712 42.0261 124.497 42.0261Z" fill="#171A1F"/>
<path d="M117.545 53.7861C116.873 53.7861 116.229 53.6881 115.613 53.4921C114.997 53.2961 114.498 53.0161 114.115 52.6521L114.619 51.8961C114.965 52.2041 115.389 52.4467 115.893 52.6241C116.407 52.8107 116.948 52.9041 117.517 52.9041C118.451 52.9041 119.137 52.6847 119.575 52.2461C120.014 51.8167 120.233 51.1447 120.233 50.2301V48.3961L120.373 47.1361L120.275 45.8761V43.6501H121.227V50.1041C121.227 51.3734 120.915 52.3021 120.289 52.8901C119.673 53.4874 118.759 53.7861 117.545 53.7861ZM117.363 50.7201C116.663 50.7201 116.033 50.5707 115.473 50.2721C114.913 49.9641 114.47 49.5394 114.143 48.9981C113.826 48.4567 113.667 47.8361 113.667 47.1361C113.667 46.4361 113.826 45.8201 114.143 45.2881C114.47 44.7467 114.913 44.3267 115.473 44.0281C116.033 43.7294 116.663 43.5801 117.363 43.5801C118.017 43.5801 118.605 43.7154 119.127 43.9861C119.65 44.2567 120.065 44.6581 120.373 45.1901C120.681 45.7221 120.835 46.3707 120.835 47.1361C120.835 47.9014 120.681 48.5501 120.373 49.0821C120.065 49.6141 119.65 50.0201 119.127 50.3001C118.605 50.5801 118.017 50.7201 117.363 50.7201ZM117.461 49.8381C118.003 49.8381 118.483 49.7261 118.903 49.5021C119.323 49.2687 119.655 48.9514 119.897 48.5501C120.14 48.1394 120.261 47.6681 120.261 47.1361C120.261 46.6041 120.14 46.1374 119.897 45.7361C119.655 45.3347 119.323 45.0221 118.903 44.7981C118.483 44.5647 118.003 44.4481 117.461 44.4481C116.929 44.4481 116.449 44.5647 116.019 44.7981C115.599 45.0221 115.268 45.3347 115.025 45.7361C114.792 46.1374 114.675 46.6041 114.675 47.1361C114.675 47.6681 114.792 48.1394 115.025 48.5501C115.268 48.9514 115.599 49.2687 116.019 49.5021C116.449 49.7261 116.929 49.8381 117.461 49.8381Z" fill="#171A1F"/>
<path d="M108.628 51.0701C107.919 51.0701 107.279 50.9114 106.71 50.5941C106.15 50.2674 105.707 49.8241 105.38 49.2641C105.053 48.6947 104.89 48.0461 104.89 47.3181C104.89 46.5807 105.053 45.9321 105.38 45.3721C105.707 44.8121 106.15 44.3734 106.71 44.0561C107.27 43.7387 107.909 43.5801 108.628 43.5801C109.356 43.5801 110 43.7387 110.56 44.0561C111.129 44.3734 111.573 44.8121 111.89 45.3721C112.217 45.9321 112.38 46.5807 112.38 47.3181C112.38 48.0461 112.217 48.6947 111.89 49.2641C111.573 49.8241 111.129 50.2674 110.56 50.5941C109.991 50.9114 109.347 51.0701 108.628 51.0701ZM108.628 50.1881C109.16 50.1881 109.631 50.0714 110.042 49.8381C110.453 49.5954 110.775 49.2594 111.008 48.8301C111.251 48.3914 111.372 47.8874 111.372 47.3181C111.372 46.7394 111.251 46.2354 111.008 45.8061C110.775 45.3767 110.453 45.0454 110.042 44.8121C109.631 44.5694 109.165 44.4481 108.642 44.4481C108.119 44.4481 107.653 44.5694 107.242 44.8121C106.831 45.0454 106.505 45.3767 106.262 45.8061C106.019 46.2354 105.898 46.7394 105.898 47.3181C105.898 47.8874 106.019 48.3914 106.262 48.8301C106.505 49.2594 106.831 49.5954 107.242 49.8381C107.653 50.0714 108.115 50.1881 108.628 50.1881Z" fill="#171A1F"/>
<path d="M97.7073 51V41.2H98.7433V50.104H104.231V51H97.7073Z" fill="#171A1F"/>
<path d="M90.0735 51.0001V40.6121H91.0675V51.0001H90.0735Z" fill="#171A1F"/>
<path d="M86.4217 51.0001V49.3761L86.3797 49.1101V46.3941C86.3797 45.7687 86.2024 45.2881 85.8477 44.9521C85.5024 44.6161 84.9844 44.4481 84.2937 44.4481C83.8177 44.4481 83.365 44.5274 82.9357 44.6861C82.5064 44.8447 82.1424 45.0547 81.8437 45.3161L81.3957 44.5741C81.769 44.2567 82.217 44.0141 82.7397 43.8461C83.2624 43.6687 83.813 43.5801 84.3917 43.5801C85.3437 43.5801 86.0764 43.8181 86.5897 44.2941C87.1124 44.7607 87.3737 45.4747 87.3737 46.4361V51.0001H86.4217ZM83.8877 51.0701C83.337 51.0701 82.8564 50.9814 82.4457 50.8041C82.0444 50.6174 81.7364 50.3654 81.5217 50.0481C81.307 49.7214 81.1997 49.3481 81.1997 48.9281C81.1997 48.5454 81.2884 48.2001 81.4657 47.8921C81.6524 47.5747 81.951 47.3227 82.3617 47.1361C82.7817 46.9401 83.3417 46.8421 84.0417 46.8421H86.5757V47.5841H84.0697C83.3604 47.5841 82.8657 47.7101 82.5857 47.9621C82.315 48.2141 82.1797 48.5267 82.1797 48.9001C82.1797 49.3201 82.343 49.6561 82.6697 49.9081C82.9964 50.1601 83.4537 50.2861 84.0417 50.2861C84.6017 50.2861 85.0824 50.1601 85.4837 49.9081C85.8944 49.6467 86.193 49.2734 86.3797 48.7881L86.6037 49.4741C86.417 49.9594 86.0904 50.3467 85.6237 50.6361C85.1664 50.9254 84.5877 51.0701 83.8877 51.0701Z" fill="#171A1F"/>
<path d="M78.0559 51.0001V43.6501H79.0499V51.0001H78.0559ZM78.5599 42.0261C78.3546 42.0261 78.1819 41.9561 78.0419 41.8161C77.9019 41.6761 77.8319 41.5081 77.8319 41.3121C77.8319 41.1161 77.9019 40.9527 78.0419 40.8221C78.1819 40.6821 78.3546 40.6121 78.5599 40.6121C78.7652 40.6121 78.9379 40.6774 79.0779 40.8081C79.2179 40.9387 79.2879 41.1021 79.2879 41.2981C79.2879 41.5034 79.2179 41.6761 79.0779 41.8161C78.9472 41.9561 78.7746 42.0261 78.5599 42.0261Z" fill="#171A1F"/>
<path d="M73.3285 51.0701C72.6005 51.0701 71.9472 50.9114 71.3685 50.5941C70.7992 50.2674 70.3512 49.8241 70.0245 49.2641C69.6979 48.6947 69.5345 48.0461 69.5345 47.3181C69.5345 46.5807 69.6979 45.9321 70.0245 45.3721C70.3512 44.8121 70.7992 44.3734 71.3685 44.0561C71.9472 43.7387 72.6005 43.5801 73.3285 43.5801C73.9539 43.5801 74.5185 43.7014 75.0225 43.9441C75.5265 44.1867 75.9232 44.5507 76.2125 45.0361L75.4705 45.5401C75.2185 45.1667 74.9059 44.8914 74.5325 44.7141C74.1592 44.5367 73.7532 44.4481 73.3145 44.4481C72.7919 44.4481 72.3205 44.5694 71.9005 44.8121C71.4805 45.0454 71.1492 45.3767 70.9065 45.8061C70.6639 46.2354 70.5425 46.7394 70.5425 47.3181C70.5425 47.8967 70.6639 48.4007 70.9065 48.8301C71.1492 49.2594 71.4805 49.5954 71.9005 49.8381C72.3205 50.0714 72.7919 50.1881 73.3145 50.1881C73.7532 50.1881 74.1592 50.0994 74.5325 49.9221C74.9059 49.7447 75.2185 49.4741 75.4705 49.1101L76.2125 49.6141C75.9232 50.0901 75.5265 50.4541 75.0225 50.7061C74.5185 50.9487 73.9539 51.0701 73.3285 51.0701Z" fill="#171A1F"/>
<path d="M64.4952 51.0701C63.7859 51.0701 63.1465 50.9114 62.5772 50.5941C62.0172 50.2674 61.5739 49.8241 61.2472 49.2641C60.9205 48.6947 60.7572 48.0461 60.7572 47.3181C60.7572 46.5807 60.9205 45.9321 61.2472 45.3721C61.5739 44.8121 62.0172 44.3734 62.5772 44.0561C63.1372 43.7387 63.7765 43.5801 64.4952 43.5801C65.2232 43.5801 65.8672 43.7387 66.4272 44.0561C66.9965 44.3734 67.4399 44.8121 67.7572 45.3721C68.0839 45.9321 68.2472 46.5807 68.2472 47.3181C68.2472 48.0461 68.0839 48.6947 67.7572 49.2641C67.4399 49.8241 66.9965 50.2674 66.4272 50.5941C65.8579 50.9114 65.2139 51.0701 64.4952 51.0701ZM64.4952 50.1881C65.0272 50.1881 65.4985 50.0714 65.9092 49.8381C66.3199 49.5954 66.6419 49.2594 66.8752 48.8301C67.1179 48.3914 67.2392 47.8874 67.2392 47.3181C67.2392 46.7394 67.1179 46.2354 66.8752 45.8061C66.6419 45.3767 66.3199 45.0454 65.9092 44.8121C65.4985 44.5694 65.0319 44.4481 64.5092 44.4481C63.9865 44.4481 63.5199 44.5694 63.1092 44.8121C62.6985 45.0454 62.3719 45.3767 62.1292 45.8061C61.8865 46.2354 61.7652 46.7394 61.7652 47.3181C61.7652 47.8874 61.8865 48.3914 62.1292 48.8301C62.3719 49.2594 62.6985 49.5954 63.1092 49.8381C63.5199 50.0714 63.9819 50.1881 64.4952 50.1881Z" fill="#171A1F"/>
<path d="M55.798 51.084C55.07 51.084 54.37 50.9673 53.698 50.734C53.0353 50.4913 52.522 50.1833 52.158 49.81L52.564 49.012C52.9093 49.348 53.3713 49.6326 53.95 49.866C54.538 50.09 55.154 50.202 55.798 50.202C56.414 50.202 56.9133 50.1273 57.296 49.978C57.688 49.8193 57.9726 49.6093 58.15 49.348C58.3366 49.0866 58.43 48.7973 58.43 48.48C58.43 48.0973 58.318 47.7893 58.094 47.556C57.8793 47.3226 57.5946 47.1406 57.24 47.01C56.8853 46.87 56.4933 46.7486 56.064 46.646C55.6346 46.5433 55.2053 46.436 54.776 46.324C54.3466 46.2026 53.95 46.044 53.586 45.848C53.2313 45.652 52.942 45.3953 52.718 45.078C52.5033 44.7513 52.396 44.3266 52.396 43.804C52.396 43.3186 52.522 42.8753 52.774 42.474C53.0353 42.0633 53.432 41.7366 53.964 41.494C54.496 41.242 55.1773 41.116 56.008 41.116C56.5586 41.116 57.1046 41.1953 57.646 41.354C58.1873 41.5033 58.654 41.7133 59.046 41.984L58.696 42.81C58.276 42.53 57.828 42.3246 57.352 42.194C56.8853 42.0633 56.4326 41.998 55.994 41.998C55.406 41.998 54.9206 42.0773 54.538 42.236C54.1553 42.3946 53.8706 42.6093 53.684 42.88C53.5066 43.1413 53.418 43.44 53.418 43.776C53.418 44.1586 53.5253 44.4666 53.74 44.7C53.964 44.9333 54.2533 45.1153 54.608 45.246C54.972 45.3766 55.3686 45.4933 55.798 45.596C56.2273 45.6986 56.652 45.8106 57.072 45.932C57.5013 46.0533 57.8933 46.212 58.248 46.408C58.612 46.5946 58.9013 46.8466 59.116 47.164C59.34 47.4813 59.452 47.8966 59.452 48.41C59.452 48.886 59.3213 49.3293 59.06 49.74C58.7986 50.1413 58.3973 50.468 57.856 50.72C57.324 50.9626 56.638 51.084 55.798 51.084Z" fill="#171A1F"/>
<g clip-path="url(#clip0_141_23)">
<path d="M45.125 46.1812C45.125 50.6031 42.0969 53.75 37.625 53.75C33.3375 53.75 29.875 50.2875 29.875 46C29.875 41.7125 33.3375 38.25 37.625 38.25C39.7125 38.25 41.4687 39.0156 42.8219 40.2781L40.7125 42.3063C37.9531 39.6438 32.8219 41.6438 32.8219 46C32.8219 48.7031 34.9813 50.8938 37.625 50.8938C40.6937 50.8938 41.8437 48.6938 42.025 47.5531L37.625 47.5531L37.625 44.8875L45.0031 44.8875C45.075 45.2844 45.125 45.6656 45.125 46.1812Z" fill="#171A1F"/>
</g>
</g>
<g filter="url(#filter1_dd_141_23)">
<path d="M103.896 8.93678C104.287 6.76256 106.367 5.31713 108.541 5.70834L210.897 24.1252C213.072 24.5164 214.517 26.596 214.126 28.7703L210.938 46.4858C210.547 48.66 208.467 50.1054 206.293 49.7142L103.937 31.2974C101.763 30.9062 100.317 28.8265 100.708 26.6523L103.896 8.93678Z" fill="#DEE1E6"/>
</g>
<path d="M203.008 33.7252C203.596 33.831 204.089 34.0384 204.489 34.3474C204.899 34.6488 205.187 35.0515 205.353 35.5554C205.527 36.061 205.552 36.6628 205.426 37.3609L204.67 41.5634L203.692 41.3874L204.431 37.2814C204.568 36.5189 204.478 35.9101 204.162 35.4549C203.856 34.9921 203.359 34.6988 202.67 34.5748C202.156 34.4823 201.686 34.5069 201.263 34.6488C200.85 34.7831 200.502 35.0287 200.22 35.3857C199.948 35.7352 199.763 36.1855 199.664 36.7366L198.979 40.5395L198.001 40.3635L199.303 33.1297L200.24 33.2983L199.883 35.2824L199.798 34.8831C200.122 34.4008 200.563 34.0582 201.121 33.8551C201.681 33.6429 202.31 33.5996 203.008 33.7252Z" fill="#FF8500"/>
<path d="M192.299 39.4086C191.601 39.283 190.999 39.0136 190.495 38.6004C190.002 38.1798 189.644 37.6649 189.422 37.0559C189.201 36.4378 189.155 35.7704 189.284 35.0539C189.415 34.3282 189.69 33.7188 190.111 33.2255C190.532 32.7321 191.046 32.3789 191.653 32.1658C192.26 31.9526 192.918 31.9097 193.625 32.0369C194.342 32.1659 194.947 32.4361 195.442 32.8475C195.946 33.2607 196.305 33.7709 196.518 34.3783C196.741 34.9873 196.786 35.6546 196.656 36.3803C196.527 37.0968 196.251 37.7063 195.829 38.2088C195.418 38.7037 194.903 39.0615 194.284 39.2822C193.668 39.4937 193.006 39.5358 192.299 39.4086ZM192.455 38.5405C192.979 38.6347 193.463 38.6034 193.909 38.4464C194.356 38.2803 194.732 38.0067 195.038 37.6254C195.354 37.2367 195.563 36.7621 195.664 36.2018C195.766 35.6323 195.736 35.1147 195.573 34.6492C195.42 34.1854 195.161 33.8022 194.799 33.4999C194.437 33.1883 194 32.9863 193.485 32.8937C192.971 32.8011 192.49 32.8379 192.043 33.004C191.597 33.161 191.217 33.4292 190.902 33.8088C190.587 34.1884 190.379 34.6629 190.276 35.2324C190.175 35.7928 190.206 36.3103 190.367 36.785C190.53 37.2505 190.792 37.639 191.153 37.9506C191.516 38.253 191.95 38.4496 192.455 38.5405Z" fill="#FF8500"/>
<path d="M183.66 37.8544C182.962 37.7288 182.361 37.4594 181.857 37.0462C181.363 36.6256 181.006 36.1107 180.783 35.5017C180.563 34.8836 180.517 34.2162 180.646 33.4997C180.776 32.774 181.052 32.1646 181.472 31.6713C181.893 31.1779 182.407 30.8247 183.014 30.6116C183.622 30.3984 184.279 30.3555 184.986 30.4827C185.703 30.6117 186.309 30.8819 186.804 31.2933C187.308 31.7065 187.666 32.2167 187.88 32.8241C188.102 33.4331 188.148 34.1004 188.017 34.8261C187.888 35.5426 187.613 36.1521 187.19 36.6546C186.779 37.1495 186.264 37.5073 185.646 37.728C185.029 37.9395 184.367 37.9816 183.66 37.8544ZM183.816 36.9863C184.34 37.0805 184.824 37.0492 185.27 36.8922C185.717 36.7261 186.093 36.4525 186.399 36.0712C186.716 35.6825 186.924 35.2079 187.025 34.6476C187.128 34.0781 187.097 33.5605 186.935 33.095C186.781 32.6312 186.523 32.248 186.16 31.9457C185.799 31.6341 185.361 31.4321 184.846 31.3395C184.332 31.2469 183.851 31.2837 183.404 31.4498C182.959 31.6068 182.578 31.875 182.264 32.2546C181.949 32.6342 181.74 33.1087 181.638 33.6782C181.537 34.2386 181.567 34.7561 181.728 35.2308C181.891 35.6963 182.153 36.0848 182.514 36.3964C182.877 36.6988 183.311 36.8954 183.816 36.9863Z" fill="#FF8500"/>
<path d="M175.098 36.3279C174.381 36.1989 173.713 35.9602 173.093 35.6115C172.484 35.2553 172.033 34.8613 171.741 34.4294L172.282 33.7159C172.562 34.1078 172.967 34.4697 173.495 34.8018C174.034 35.1264 174.62 35.3458 175.254 35.4598C175.86 35.5689 176.365 35.5838 176.768 35.5046C177.182 35.4179 177.499 35.2616 177.72 35.0358C177.95 34.8116 178.093 34.5434 178.149 34.2311C178.217 33.8545 178.161 33.5315 177.982 33.2622C177.812 32.9945 177.564 32.765 177.238 32.5736C176.914 32.373 176.55 32.1842 176.146 32.0071C175.741 31.83 175.338 31.6484 174.935 31.4621C174.534 31.2667 174.172 31.0403 173.848 30.7829C173.534 30.5272 173.294 30.2233 173.13 29.8714C172.977 29.5118 172.946 29.0749 173.039 28.5605C173.125 28.0828 173.327 27.6688 173.646 27.3184C173.976 26.9605 174.424 26.7093 174.991 26.5646C175.559 26.4108 176.252 26.4075 177.07 26.5546C177.612 26.6521 178.135 26.8269 178.64 27.0789C179.146 27.3217 179.568 27.611 179.906 27.9468L179.415 28.6978C179.051 28.3479 178.647 28.0664 178.202 27.8535C177.765 27.6423 177.331 27.4978 176.9 27.4202C176.321 27.316 175.829 27.3082 175.425 27.3966C175.02 27.485 174.702 27.6458 174.47 27.8792C174.249 28.105 174.109 28.3832 174.05 28.7139C173.982 29.0905 174.033 29.4126 174.203 29.6803C174.382 29.9496 174.635 30.18 174.96 30.3714C175.296 30.5644 175.665 30.7495 176.07 30.9266C176.474 31.1037 176.872 31.2891 177.264 31.4829C177.665 31.6783 178.023 31.9039 178.337 32.1596C178.662 32.4078 178.902 32.707 179.058 33.0574C179.222 33.4094 179.258 33.838 179.168 34.3432C179.083 34.8117 178.876 35.2248 178.546 35.5827C178.218 35.9315 177.765 36.1819 177.188 36.334C176.621 36.4787 175.925 36.4766 175.098 36.3279Z" fill="#FF8500"/>
<path d="M161.801 36.6809C161.14 36.5619 160.523 36.3514 159.952 36.0494C159.38 35.7474 158.938 35.3834 158.626 34.9574L159.256 34.3026C159.541 34.6669 159.916 34.9809 160.381 35.2447C160.853 35.5193 161.369 35.7071 161.93 35.8079C162.848 35.9732 163.562 35.8788 164.072 35.5247C164.58 35.1799 164.914 34.5573 165.076 33.6571L165.401 31.8521L165.762 30.6368L165.889 29.3794L166.283 27.1885L167.22 27.3571L166.077 33.7091C165.852 34.9584 165.38 35.817 164.66 36.285C163.948 36.7638 162.995 36.8958 161.801 36.6809ZM162.165 33.6311C161.476 33.5072 160.882 33.2486 160.384 32.8555C159.888 32.4532 159.526 31.9568 159.301 31.3661C159.084 30.7772 159.038 30.1382 159.162 29.4493C159.286 28.7603 159.551 28.1822 159.958 27.7148C160.375 27.2398 160.886 26.905 161.49 26.7102C162.094 26.5154 162.74 26.48 163.429 26.604C164.072 26.7197 164.627 26.957 165.094 27.3159C165.56 27.6749 165.898 28.1434 166.107 28.7215C166.316 29.2997 166.352 29.9654 166.217 30.7186C166.081 31.4718 165.815 32.083 165.417 32.552C165.02 33.0211 164.539 33.3471 163.975 33.5301C163.411 33.7132 162.808 33.7468 162.165 33.6311ZM162.418 32.7804C162.95 32.8763 163.443 32.8512 163.896 32.7051C164.351 32.5498 164.733 32.2962 165.043 31.9442C165.355 31.5829 165.558 31.1406 165.652 30.617C165.746 30.0934 165.709 29.6126 165.541 29.1746C165.374 28.7367 165.103 28.3703 164.729 28.0754C164.357 27.7714 163.905 27.5715 163.372 27.4756C162.848 27.3814 162.355 27.4111 161.891 27.5647C161.438 27.7108 161.056 27.9599 160.746 28.3119C160.446 28.6655 160.248 29.1042 160.154 29.6278C160.06 30.1514 160.091 30.6359 160.248 31.0814C160.416 31.5194 160.686 31.8904 161.058 32.1944C161.441 32.4909 161.894 32.6862 162.418 32.7804Z" fill="#FF8500"/>
<path d="M154.903 25.0699C155.491 25.1757 155.985 25.3831 156.385 25.6921C156.795 25.9935 157.083 26.3962 157.248 26.9001C157.423 27.4057 157.447 28.0075 157.322 28.7057L156.566 32.9082L155.587 32.7322L156.326 28.6261C156.463 27.8637 156.374 27.2548 156.057 26.7996C155.752 26.3369 155.254 26.0435 154.565 25.9195C154.051 25.827 153.582 25.8516 153.158 25.9935C152.745 26.1278 152.397 26.3735 152.115 26.7305C151.844 27.0799 151.658 27.5302 151.559 28.0813L150.875 31.8843L149.897 31.7082L151.198 24.4744L152.135 24.643L151.778 26.6271L151.693 26.2278C152.017 25.7456 152.458 25.4029 153.016 25.1999C153.576 24.9876 154.205 24.9443 154.903 25.0699Z" fill="#FF8500"/>
<path d="M146.196 31.0423L147.498 23.8085L148.476 23.9845L147.175 31.2183L146.196 31.0423ZM148.281 22.2994C148.079 22.263 147.922 22.1635 147.809 22.001C147.696 21.8384 147.657 21.6606 147.691 21.4677C147.726 21.2748 147.824 21.1265 147.985 21.0227C148.147 20.9097 148.33 20.8714 148.532 20.9077C148.734 20.9441 148.892 21.039 149.007 21.1924C149.122 21.3458 149.162 21.5189 149.127 21.7118C149.09 21.9139 148.991 22.0714 148.828 22.1844C148.675 22.2991 148.493 22.3374 148.281 22.2994Z" fill="#FF8500"/>
<path d="M141.936 22.7367C142.524 22.8425 143.013 23.049 143.404 23.3564C143.805 23.6561 144.084 24.0572 144.24 24.5594C144.405 25.0634 144.425 25.6644 144.299 26.3625L143.543 30.565L142.565 30.389L143.304 26.2829C143.441 25.5205 143.36 24.9133 143.062 24.4614C142.775 24.002 142.301 23.7127 141.64 23.5937C141.144 23.5045 140.693 23.5324 140.287 23.6776C139.893 23.8152 139.559 24.0634 139.286 24.422C139.023 24.7731 138.843 25.2242 138.744 25.7754L138.059 29.5783L137.081 29.4023L137.82 25.2962C137.957 24.5338 137.877 23.9266 137.579 23.4747C137.282 23.0136 136.803 22.7236 136.142 22.6046C135.655 22.517 135.209 22.5457 134.803 22.6909C134.4 22.8269 134.061 23.0742 133.788 23.4328C133.526 23.7839 133.345 24.235 133.246 24.7862L132.562 28.5891L131.583 28.4131L132.885 21.1792L133.822 21.3478L133.47 23.3044L133.38 22.9327C133.695 22.4487 134.122 22.1036 134.662 21.8973C135.212 21.6834 135.823 21.6368 136.493 21.7574C137.201 21.8847 137.77 22.1721 138.202 22.6196C138.635 23.0579 138.861 23.6439 138.881 24.3777L138.523 24.1567C138.84 23.6068 139.297 23.2007 139.894 22.9383C140.502 22.6684 141.183 22.6012 141.936 22.7367Z" fill="#FF8500"/>
<path d="M125.881 27.4581C125.183 27.3325 124.582 27.0631 124.077 26.65C123.584 26.2293 123.226 25.7145 123.004 25.1055C122.783 24.4873 122.737 23.82 122.866 23.1035C122.997 22.3778 123.273 21.7683 123.693 21.275C124.114 20.7817 124.628 20.4285 125.235 20.2153C125.843 20.0022 126.5 19.9592 127.207 20.0865C127.924 20.2154 128.529 20.4856 129.024 20.8971C129.529 21.3102 129.887 21.8205 130.1 22.4278C130.323 23.0368 130.369 23.7042 130.238 24.4298C130.109 25.1463 129.833 25.7558 129.411 26.2583C129 26.7533 128.485 27.1111 127.867 27.3318C127.25 27.5433 126.588 27.5854 125.881 27.4581ZM126.037 26.5901C126.561 26.6843 127.045 26.6529 127.491 26.496C127.938 26.3299 128.314 26.0562 128.62 25.675C128.936 25.2862 129.145 24.8117 129.246 24.2513C129.348 23.6818 129.318 23.1643 129.155 22.6988C129.002 22.2349 128.744 21.8518 128.381 21.5494C128.02 21.2379 127.582 21.0358 127.067 20.9433C126.553 20.8507 126.072 20.8875 125.625 21.0536C125.179 21.2105 124.799 21.4788 124.484 21.8583C124.17 22.2379 123.961 22.7125 123.858 23.282C123.758 23.8423 123.788 24.3598 123.949 24.8345C124.112 25.3001 124.374 25.6886 124.735 26.0002C125.098 26.3025 125.532 26.4992 126.037 26.5901Z" fill="#FF8500"/>
<path d="M117.242 25.9039C116.544 25.7783 115.943 25.5089 115.439 25.0958C114.946 24.6751 114.588 24.1603 114.365 23.5513C114.145 22.9331 114.099 22.2658 114.228 21.5493C114.358 20.8236 114.634 20.2141 115.055 19.7208C115.475 19.2275 115.989 18.8743 116.597 18.6611C117.204 18.448 117.861 18.405 118.569 18.5323C119.285 18.6612 119.891 18.9314 120.386 19.3429C120.89 19.756 121.249 20.2663 121.462 20.8736C121.684 21.4826 121.73 22.15 121.599 22.8756C121.47 23.5921 121.195 24.2016 120.772 24.7041C120.361 25.1991 119.846 25.5569 119.228 25.7776C118.611 25.9891 117.95 26.0312 117.242 25.9039ZM117.398 25.0359C117.922 25.1301 118.407 25.0987 118.852 24.9418C119.299 24.7757 119.676 24.502 119.981 24.1208C120.298 23.732 120.506 23.2575 120.607 22.6971C120.71 22.1276 120.68 21.6101 120.517 21.1446C120.363 20.6807 120.105 20.2976 119.742 19.9952C119.381 19.6837 118.943 19.4816 118.429 19.3891C117.914 19.2965 117.433 19.3333 116.986 19.4994C116.541 19.6563 116.161 19.9246 115.846 20.3041C115.531 20.6837 115.322 21.1583 115.22 21.7278C115.119 22.2881 115.149 22.8056 115.31 23.2803C115.473 23.7459 115.735 24.1344 116.096 24.446C116.459 24.7483 116.893 24.945 117.398 25.0359Z" fill="#FF8500"/>
<path d="M109.106 24.4542C108.38 24.3236 107.731 24.0835 107.159 23.734C106.588 23.3752 106.117 22.9349 105.746 22.413C105.376 21.8911 105.115 21.3084 104.966 20.6651C104.825 20.0234 104.818 19.3489 104.946 18.6416C105.073 17.9343 105.314 17.3044 105.67 16.7519C106.034 16.2011 106.481 15.7457 107.011 15.3858C107.549 15.0275 108.148 14.7843 108.806 14.6563C109.466 14.519 110.159 14.5156 110.885 14.6462C111.583 14.7718 112.218 15.0094 112.791 15.359C113.365 15.6993 113.821 16.1418 114.159 16.6863L113.395 17.2174C113.073 16.7421 112.689 16.3743 112.242 16.1138C111.798 15.8441 111.3 15.6597 110.749 15.5605C110.17 15.4564 109.615 15.4608 109.082 15.5736C108.551 15.6773 108.069 15.8798 107.636 16.1811C107.204 16.4732 106.838 16.8437 106.54 17.2925C106.252 17.7338 106.056 18.2438 105.951 18.8225C105.847 19.4012 105.852 19.9522 105.967 20.4754C106.092 20.9911 106.306 21.4657 106.607 21.8992C106.91 22.3236 107.291 22.6815 107.751 22.9728C108.212 23.2549 108.732 23.4481 109.311 23.5522C109.862 23.6514 110.393 23.6521 110.904 23.5543C111.414 23.4565 111.904 23.2411 112.371 22.908L112.902 23.6721C112.396 24.0646 111.813 24.3248 111.155 24.4529C110.496 24.581 109.813 24.5814 109.106 24.4542Z" fill="#FF8500"/>
<defs>
<filter id="filter0_dd_141_23" x="0" y="23" width="166" height="54" filterUnits="userSpaceOnUse" color-interpolation-filters="sRGB">
<feFlood flood-opacity="0" result="BackgroundImageFix"/>
<feColorMatrix in="SourceAlpha" type="matrix" values="0 0 0 0 0 0 0 0 0 0 0 0 0 0 0 0 0 0 127 0" result="hardAlpha"/>
<feOffset dy="4"/>
<feGaussianBlur stdDeviation="4.5"/>
<feColorMatrix type="matrix" values="0 0 0 0 0.0901961 0 0 0 0 0.101961 0 0 0 0 0.121569 0 0 0 0.11 0"/>
<feBlend mode="normal" in2="BackgroundImageFix" result="effect1_dropShadow_141_23"/>
<feColorMatrix in="SourceAlpha" type="matrix" values="0 0 0 0 0 0 0 0 0 0 0 0 0 0 0 0 0 0 127 0" result="hardAlpha"/>
<feOffset/>
<feGaussianBlur stdDeviation="1"/>
<feColorMatrix type="matrix" values="0 0 0 0 0.0901961 0 0 0 0 0.101961 0 0 0 0 0.121569 0 0 0 0.12 0"/>
<feBlend mode="normal" in2="effect1_dropShadow_141_23" result="effect2_dropShadow_141_23"/>
<feBlend mode="normal" in="SourceGraphic" in2="effect2_dropShadow_141_23" result="shape"/>
</filter>
<filter id="filter1_dd_141_23" x="91.6445" y="0.644531" width="131.545" height="62.1335" filterUnits="userSpaceOnUse" color-interpolation-filters="sRGB">
<feFlood flood-opacity="0" result="BackgroundImageFix"/>
<feColorMatrix in="SourceAlpha" type="matrix" values="0 0 0 0 0 0 0 0 0 0 0 0 0 0 0 0 0 0 127 0" result="hardAlpha"/>
<feOffset dy="4"/>
<feGaussianBlur stdDeviation="4.5"/>
<feColorMatrix type="matrix" values="0 0 0 0 0.0901961 0 0 0 0 0.101961 0 0 0 0 0.121569 0 0 0 0.11 0"/>
<feBlend mode="normal" in2="BackgroundImageFix" result="effect1_dropShadow_141_23"/>
<feColorMatrix in="SourceAlpha" type="matrix" values="0 0 0 0 0 0 0 0 0 0 0 0 0 0 0 0 0 0 127 0" result="hardAlpha"/>
<feOffset/>
<feGaussianBlur stdDeviation="1"/>
<feColorMatrix type="matrix" values="0 0 0 0 0.0901961 0 0 0 0 0.101961 0 0 0 0 0.121569 0 0 0 0.12 0"/>
<feBlend mode="normal" in2="effect1_dropShadow_141_23" result="effect2_dropShadow_141_23"/>
<feBlend mode="normal" in="SourceGraphic" in2="effect2_dropShadow_141_23" result="shape"/>
</filter>
<clipPath id="clip0_141_23">
<rect width="16" height="16" fill="white" transform="translate(29.5 38)"/>
</clipPath>
</defs>
</svg>
