<svg width="224" height="77" viewBox="0 0 224 77" fill="none" xmlns="http://www.w3.org/2000/svg">
<g opacity="0.4" filter="url(#filter0_dd_141_23)">
<rect x="9" y="28" width="148" height="36" rx="4" fill="white"/>
<path d="M131.505 43.5801C132.103 43.5801 132.625 43.6967 133.073 43.9301C133.531 44.1541 133.885 44.4994 134.137 44.9661C134.399 45.4327 134.529 46.0207 134.529 46.7301V51.0001H133.535V46.8281C133.535 46.0534 133.339 45.4701 132.947 45.0781C132.565 44.6767 132.023 44.4761 131.323 44.4761C130.801 44.4761 130.343 44.5834 129.951 44.7981C129.569 45.0034 129.27 45.3067 129.055 45.7081C128.85 46.1001 128.747 46.5761 128.747 47.1361V51.0001H127.753V43.6501H128.705V45.6661L128.551 45.2881C128.785 44.7561 129.158 44.3407 129.671 44.0421C130.185 43.7341 130.796 43.5801 131.505 43.5801Z" fill="#171A1F"/>
<path d="M123.993 51.0001V43.6501H124.987V51.0001H123.993ZM124.497 42.0261C124.292 42.0261 124.119 41.9561 123.979 41.8161C123.839 41.6761 123.769 41.5081 123.769 41.3121C123.769 41.1161 123.839 40.9527 123.979 40.8221C124.119 40.6821 124.292 40.6121 124.497 40.6121C124.703 40.6121 124.875 40.6774 125.015 40.8081C125.155 40.9387 125.225 41.1021 125.225 41.2981C125.225 41.5034 125.155 41.6761 125.015 41.8161C124.885 41.9561 124.712 42.0261 124.497 42.0261Z" fill="#171A1F"/>
<path d="M117.545 53.7861C116.873 53.7861 116.229 53.6881 115.613 53.4921C114.997 53.2961 114.498 53.0161 114.115 52.6521L114.619 51.8961C114.965 52.2041 115.389 52.4467 115.893 52.6241C116.407 52.8107 116.948 52.9041 117.517 52.9041C118.451 52.9041 119.137 52.6847 119.575 52.2461C120.014 51.8167 120.233 51.1447 120.233 50.2301V48.3961L120.373 47.1361L120.275 45.8761V43.6501H121.227V50.1041C121.227 51.3734 120.915 52.3021 120.289 52.8901C119.673 53.4874 118.759 53.7861 117.545 53.7861ZM117.363 50.7201C116.663 50.7201 116.033 50.5707 115.473 50.2721C114.913 49.9641 114.47 49.5394 114.143 48.9981C113.826 48.4567 113.667 47.8361 113.667 47.1361C113.667 46.4361 113.826 45.8201 114.143 45.2881C114.47 44.7467 114.913 44.3267 115.473 44.0281C116.033 43.7294 116.663 43.5801 117.363 43.5801C118.017 43.5801 118.605 43.7154 119.127 43.9861C119.65 44.2567 120.065 44.6581 120.373 45.1901C120.681 45.7221 120.835 46.3707 120.835 47.1361C120.835 47.9014 120.681 48.5501 120.373 49.0821C120.065 49.6141 119.65 50.0201 119.127 50.3001C118.605 50.5801 118.017 50.7201 117.363 50.7201ZM117.461 49.8381C118.003 49.8381 118.483 49.7261 118.903 49.5021C119.323 49.2687 119.655 48.9514 119.897 48.5501C120.14 48.1394 120.261 47.6681 120.261 47.1361C120.261 46.6041 120.14 46.1374 119.897 45.7361C119.655 45.3347 119.323 45.0221 118.903 44.7981C118.483 44.5647 118.003 44.4481 117.461 44.4481C116.929 44.4481 116.449 44.5647 116.019 44.7981C115.599 45.0221 115.268 45.3347 115.025 45.7361C114.792 46.1374 114.675 46.6041 114.675 47.1361C114.675 47.6681 114.792 48.1394 115.025 48.5501C115.268 48.9514 115.599 49.2687 116.019 49.5021C116.449 49.7261 116.929 49.8381 117.461 49.8381Z" fill="#171A1F"/>
<path d="M108.628 51.0701C107.919 51.0701 107.279 50.9114 106.71 50.5941C106.15 50.2674 105.707 49.8241 105.38 49.2641C105.053 48.6947 104.89 48.0461 104.89 47.3181C104.89 46.5807 105.053 45.9321 105.38 45.3721C105.707 44.8121 106.15 44.3734 106.71 44.0561C107.27 43.7387 107.909 43.5801 108.628 43.5801C109.356 43.5801 110 43.7387 110.56 44.0561C111.129 44.3734 111.573 44.8121 111.89 45.3721C112.217 45.9321 112.38 46.5807 112.38 47.3181C112.38 48.0461 112.217 48.6947 111.89 49.2641C111.573 49.8241 111.129 50.2674 110.56 50.5941C109.991 50.9114 109.347 51.0701 108.628 51.0701ZM108.628 50.1881C109.16 50.1881 109.631 50.0714 110.042 49.8381C110.453 49.5954 110.775 49.2594 111.008 48.8301C111.251 48.3914 111.372 47.8874 111.372 47.3181C111.372 46.7394 111.251 46.2354 111.008 45.8061C110.775 45.3767 110.453 45.0454 110.042 44.8121C109.631 44.5694 109.165 44.4481 108.642 44.4481C108.119 44.4481 107.653 44.5694 107.242 44.8121C106.831 45.0454 106.505 45.3767 106.262 45.8061C106.019 46.2354 105.898 46.7394 105.898 47.3181C105.898 47.8874 106.019 48.3914 106.262 48.8301C106.505 49.2594 106.831 49.5954 107.242 49.8381C107.653 50.0714 108.115 50.1881 108.628 50.1881Z" fill="#171A1F"/>
<path d="M97.7073 51V41.2H98.7433V50.104H104.231V51H97.7073Z" fill="#171A1F"/>
<path d="M90.0735 51.0001V40.6121H91.0675V51.0001H90.0735Z" fill="#171A1F"/>
<path d="M86.4217 51.0001V49.3761L86.3797 49.1101V46.3941C86.3797 45.7687 86.2024 45.2881 85.8477 44.9521C85.5024 44.6161 84.9844 44.4481 84.2937 44.4481C83.8177 44.4481 83.365 44.5274 82.9357 44.6861C82.5064 44.8447 82.1424 45.0547 81.8437 45.3161L81.3957 44.5741C81.769 44.2567 82.217 44.0141 82.7397 43.8461C83.2624 43.6687 83.813 43.5801 84.3917 43.5801C85.3437 43.5801 86.0764 43.8181 86.5897 44.2941C87.1124 44.7607 87.3737 45.4747 87.3737 46.4361V51.0001H86.4217ZM83.8877 51.0701C83.337 51.0701 82.8564 50.9814 82.4457 50.8041C82.0444 50.6174 81.7364 50.3654 81.5217 50.0481C81.307 49.7214 81.1997 49.3481 81.1997 48.9281C81.1997 48.5454 81.2884 48.2001 81.4657 47.8921C81.6524 47.5747 81.951 47.3227 82.3617 47.1361C82.7817 46.9401 83.3417 46.8421 84.0417 46.8421H86.5757V47.5841H84.0697C83.3604 47.5841 82.8657 47.7101 82.5857 47.9621C82.315 48.2141 82.1797 48.5267 82.1797 48.9001C82.1797 49.3201 82.343 49.6561 82.6697 49.9081C82.9964 50.1601 83.4537 50.2861 84.0417 50.2861C84.6017 50.2861 85.0824 50.1601 85.4837 49.9081C85.8944 49.6467 86.193 49.2734 86.3797 48.7881L86.6037 49.4741C86.417 49.9594 86.0904 50.3467 85.6237 50.6361C85.1664 50.9254 84.5877 51.0701 83.8877 51.0701Z" fill="#171A1F"/>
<path d="M78.0559 51.0001V43.6501H79.0499V51.0001H78.0559ZM78.5599 42.0261C78.3546 42.0261 78.1819 41.9561 78.0419 41.8161C77.9019 41.6761 77.8319 41.5081 77.8319 41.3121C77.8319 41.1161 77.9019 40.9527 78.0419 40.8221C78.1819 40.6821 78.3546 40.6121 78.5599 40.6121C78.7652 40.6121 78.9379 40.6774 79.0779 40.8081C79.2179 40.9387 79.2879 41.1021 79.2879 41.2981C79.2879 41.5034 79.2179 41.6761 79.0779 41.8161C78.9472 41.9561 78.7746 42.0261 78.5599 42.0261Z" fill="#171A1F"/>
<path d="M73.3285 51.0701C72.6005 51.0701 71.9472 50.9114 71.3685 50.5941C70.7992 50.2674 70.3512 49.8241 70.0245 49.2641C69.6979 48.6947 69.5345 48.0461 69.5345 47.3181C69.5345 46.5807 69.6979 45.9321 70.0245 45.3721C70.3512 44.8121 70.7992 44.3734 71.3685 44.0561C71.9472 43.7387 72.6005 43.5801 73.3285 43.5801C73.9539 43.5801 74.5185 43.7014 75.0225 43.9441C75.5265 44.1867 75.9232 44.5507 76.2125 45.0361L75.4705 45.5401C75.2185 45.1667 74.9059 44.8914 74.5325 44.7141C74.1592 44.5367 73.7532 44.4481 73.3145 44.4481C72.7919 44.4481 72.3205 44.5694 71.9005 44.8121C71.4805 45.0454 71.1492 45.3767 70.9065 45.8061C70.6639 46.2354 70.5425 46.7394 70.5425 47.3181C70.5425 47.8967 70.6639 48.4007 70.9065 48.8301C71.1492 49.2594 71.4805 49.5954 71.9005 49.8381C72.3205 50.0714 72.7919 50.1881 73.3145 50.1881C73.7532 50.1881 74.1592 50.0994 74.5325 49.9221C74.9059 49.7447 75.2185 49.4741 75.4705 49.1101L76.2125 49.6141C75.9232 50.0901 75.5265 50.4541 75.0225 50.7061C74.5185 50.9487 73.9539 51.0701 73.3285 51.0701Z" fill="#171A1F"/>
<path d="M64.4952 51.0701C63.7859 51.0701 63.1465 50.9114 62.5772 50.5941C62.0172 50.2674 61.5739 49.8241 61.2472 49.2641C60.9205 48.6947 60.7572 48.0461 60.7572 47.3181C60.7572 46.5807 60.9205 45.9321 61.2472 45.3721C61.5739 44.8121 62.0172 44.3734 62.5772 44.0561C63.1372 43.7387 63.7765 43.5801 64.4952 43.5801C65.2232 43.5801 65.8672 43.7387 66.4272 44.0561C66.9965 44.3734 67.4399 44.8121 67.7572 45.3721C68.0839 45.9321 68.2472 46.5807 68.2472 47.3181C68.2472 48.0461 68.0839 48.6947 67.7572 49.2641C67.4399 49.8241 66.9965 50.2674 66.4272 50.5941C65.8579 50.9114 65.2139 51.0701 64.4952 51.0701ZM64.4952 50.1881C65.0272 50.1881 65.4985 50.0714 65.9092 49.8381C66.3199 49.5954 66.6419 49.2594 66.8752 48.8301C67.1179 48.3914 67.2392 47.8874 67.2392 47.3181C67.2392 46.7394 67.1179 46.2354 66.8752 45.8061C66.6419 45.3767 66.3199 45.0454 65.9092 44.8121C65.4985 44.5694 65.0319 44.4481 64.5092 44.4481C63.9865 44.4481 63.5199 44.5694 63.1092 44.8121C62.6985 45.0454 62.3719 45.3767 62.1292 45.8061C61.8865 46.2354 61.7652 46.7394 61.7652 47.3181C61.7652 47.8874 61.8865 48.3914 62.1292 48.8301C62.3719 49.2594 62.6985 49.5954 63.1092 49.8381C63.5199 50.0714 63.9819 50.1881 64.4952 50.1881Z" fill="#171A1F"/>
<path d="M55.798 51.084C55.07 51.084 54.37 50.9673 53.698 50.734C53.0353 50.4913 52.522 50.1833 52.158 49.81L52.564 49.012C52.9093 49.348 53.3713 49.6326 53.95 49.866C54.538 50.09 55.154 50.202 55.798 50.202C56.414 50.202 56.9133 50.1273 57.296 49.978C57.688 49.8193 57.9726 49.6093 58.15 49.348C58.3366 49.0866 58.43 48.7973 58.43 48.48C58.43 48.0973 58.318 47.7893 58.094 47.556C57.8793 47.3226 57.5946 47.1406 57.24 47.01C56.8853 46.87 56.4933 46.7486 56.064 46.646C55.6346 46.5433 55.2053 46.436 54.776 46.324C54.3466 46.2026 53.95 46.044 53.586 45.848C53.2313 45.652 52.942 45.3953 52.718 45.078C52.5033 44.7513 52.396 44.3266 52.396 43.804C52.396 43.3186 52.522 42.8753 52.774 42.474C53.0353 42.0633 53.432 41.7366 53.964 41.494C54.496 41.242 55.1773 41.116 56.008 41.116C56.5586 41.116 57.1046 41.1953 57.646 41.354C58.1873 41.5033 58.654 41.7133 59.046 41.984L58.696 42.81C58.276 42.53 57.828 42.3246 57.352 42.194C56.8853 42.0633 56.4326 41.998 55.994 41.998C55.406 41.998 54.9206 42.0773 54.538 42.236C54.1553 42.3946 53.8706 42.6093 53.684 42.88C53.5066 43.1413 53.418 43.44 53.418 43.776C53.418 44.1586 53.5253 44.4666 53.74 44.7C53.964 44.9333 54.2533 45.1153 54.608 45.246C54.972 45.3766 55.3686 45.4933 55.798 45.596C56.2273 45.6986 56.652 45.8106 57.072 45.932C57.5013 46.0533 57.8933 46.212 58.248 46.408C58.612 46.5946 58.9013 46.8466 59.116 47.164C59.34 47.4813 59.452 47.8966 59.452 48.41C59.452 48.886 59.3213 49.3293 59.06 49.74C58.7986 50.1413 58.3973 50.468 57.856 50.72C57.324 50.9626 56.638 51.084 55.798 51.084Z" fill="#171A1F"/>
<g clip-path="url(#clip0_141_23)">
<path d="M45.125 46.1812C45.125 50.6031 42.0969 53.75 37.625 53.75C33.3375 53.75 29.875 50.2875 29.875 46C29.875 41.7125 33.3375 38.25 37.625 38.25C39.7125 38.25 41.4688 39.0156 42.8219 40.2781L40.7125 42.3063C37.9531 39.6438 32.8219 41.6438 32.8219 46C32.8219 48.7031 34.9812 50.8938 37.625 50.8938C40.6938 50.8938 41.8437 48.6938 42.025 47.5531L37.625 47.5531L37.625 44.8875L45.0031 44.8875C45.075 45.2844 45.125 45.6656 45.125 46.1812Z" fill="#171A1F"/>
</g>
</g>
<g filter="url(#filter1_dd_141_23)">
<path d="M103.896 8.93678C104.287 6.76256 106.367 5.31713 108.541 5.70834L210.897 24.1252C213.072 24.5164 214.517 26.596 214.126 28.7703L210.938 46.4858C210.547 48.66 208.467 50.1054 206.293 49.7142L103.937 31.2974C101.763 30.9062 100.317 28.8265 100.708 26.6523L103.896 8.93678Z" fill="#DEE1E6"/>
</g>
<path d="M200.424 32.9464C201.012 33.0522 201.506 33.2596 201.906 33.5685C202.316 33.87 202.604 34.2727 202.769 34.7766C202.944 35.2822 202.968 35.884 202.843 36.5821L202.087 40.7846L201.108 40.6086L201.847 36.5026C201.984 35.7401 201.895 35.1313 201.578 34.6761C201.273 34.2133 200.776 33.92 200.087 33.796C199.572 33.7035 199.103 33.7281 198.679 33.87C198.266 34.0043 197.919 34.2499 197.636 34.6069C197.365 34.9564 197.179 35.4067 197.08 35.9578L196.396 39.7607L195.418 39.5847L196.719 32.3509L197.656 32.5195L197.299 34.5036L197.215 34.1043C197.538 33.622 197.979 33.2794 198.538 33.0763C199.097 32.8641 199.726 32.8208 200.424 32.9464Z" fill="#FF8500"/>
<path d="M189.715 38.6298C189.017 38.5041 188.416 38.2348 187.912 37.8216C187.419 37.401 187.061 36.8861 186.839 36.2771C186.618 35.6589 186.572 34.9916 186.701 34.2751C186.831 33.5494 187.107 32.9399 187.528 32.4466C187.948 31.9533 188.462 31.6001 189.07 31.387C189.677 31.1738 190.334 31.1309 191.042 31.2581C191.758 31.3871 192.364 31.6573 192.859 32.0687C193.363 32.4819 193.722 32.9921 193.935 33.5995C194.157 34.2085 194.203 34.8758 194.072 35.6015C193.944 36.318 193.668 36.9275 193.246 37.43C192.834 37.9249 192.319 38.2827 191.701 38.5034C191.085 38.7149 190.423 38.757 189.715 38.6298ZM189.872 37.7617C190.395 37.8559 190.88 37.8246 191.325 37.6676C191.772 37.5015 192.149 37.2279 192.454 36.8466C192.771 36.4579 192.98 35.9833 193.08 35.423C193.183 34.8535 193.153 34.3359 192.99 33.8704C192.836 33.4065 192.578 33.0234 192.215 32.7211C191.854 32.4095 191.416 32.2075 190.902 32.1149C190.387 32.0223 189.907 32.0591 189.459 32.2252C189.014 32.3821 188.634 32.6504 188.319 33.03C188.004 33.4095 187.795 33.8841 187.693 34.4536C187.592 35.014 187.622 35.5315 187.783 36.0062C187.946 36.4717 188.208 36.8602 188.569 37.1718C188.932 37.4742 189.366 37.6708 189.872 37.7617Z" fill="#FF8500"/>
<path d="M181.077 37.0756C180.379 36.9499 179.778 36.6806 179.273 36.2674C178.78 35.8468 178.422 35.3319 178.2 34.7229C177.979 34.1047 177.933 33.4374 178.062 32.7209C178.193 31.9952 178.468 31.3857 178.889 30.8924C179.31 30.3991 179.824 30.0459 180.431 29.8328C181.039 29.6196 181.696 29.5767 182.403 29.7039C183.12 29.8329 183.725 30.1031 184.22 30.5145C184.724 30.9277 185.083 31.4379 185.296 32.0453C185.519 32.6543 185.565 33.3216 185.434 34.0473C185.305 34.7638 185.029 35.3733 184.607 35.8758C184.196 36.3707 183.681 36.7285 183.063 36.9492C182.446 37.1607 181.784 37.2028 181.077 37.0756ZM181.233 36.2075C181.757 36.3017 182.241 36.2704 182.687 36.1134C183.134 35.9473 183.51 35.6737 183.816 35.2924C184.132 34.9037 184.341 34.4291 184.442 33.8688C184.544 33.2993 184.514 32.7817 184.351 32.3162C184.198 31.8523 183.94 31.4692 183.577 31.1669C183.215 30.8553 182.778 30.6533 182.263 30.5607C181.749 30.4681 181.268 30.5049 180.821 30.671C180.375 30.8279 179.995 31.0962 179.68 31.4758C179.366 31.8553 179.157 32.3299 179.054 32.8994C178.954 33.4598 178.984 33.9773 179.145 34.452C179.308 34.9175 179.57 35.306 179.931 35.6176C180.294 35.92 180.728 36.1166 181.233 36.2075Z" fill="#FF8500"/>
<path d="M172.514 35.549C171.798 35.4201 171.13 35.1813 170.51 34.8327C169.9 34.4765 169.45 34.0825 169.158 33.6506L169.698 32.9371C169.979 33.3289 170.383 33.6909 170.911 34.023C171.45 34.3476 172.037 34.5669 172.671 34.681C173.277 34.7901 173.782 34.805 174.185 34.7258C174.599 34.6391 174.916 34.4828 175.137 34.257C175.367 34.0328 175.51 33.7646 175.566 33.4523C175.634 33.0757 175.578 32.7527 175.399 32.4834C175.229 32.2157 174.981 31.9862 174.655 31.7948C174.331 31.5942 173.967 31.4054 173.562 31.2283C173.158 31.0512 172.754 30.8696 172.352 30.6833C171.95 30.4878 171.588 30.2614 171.265 30.0041C170.95 29.7484 170.711 29.4445 170.547 29.0925C170.393 28.733 170.363 28.2961 170.455 27.7817C170.541 27.304 170.744 26.89 171.063 26.5396C171.393 26.1817 171.841 25.9305 172.408 25.7858C172.976 25.632 173.669 25.6287 174.486 25.7758C175.028 25.8733 175.552 26.0481 176.056 26.3001C176.563 26.5429 176.985 26.8322 177.323 27.168L176.832 27.919C176.468 27.5691 176.063 27.2876 175.618 27.0747C175.182 26.8635 174.748 26.719 174.316 26.6414C173.738 26.5372 173.246 26.5294 172.841 26.6178C172.436 26.7061 172.118 26.867 171.887 27.1003C171.666 27.3261 171.526 27.6044 171.466 27.9351C171.398 28.3117 171.45 28.6338 171.619 28.9015C171.799 29.1708 172.051 29.4012 172.377 29.5926C172.712 29.7856 173.082 29.9707 173.486 30.1478C173.891 30.3249 174.289 30.5103 174.681 30.7041C175.082 30.8995 175.439 31.1251 175.754 31.3808C176.079 31.629 176.319 31.9282 176.474 32.2786C176.638 32.6305 176.675 33.0592 176.584 33.5644C176.5 34.0329 176.293 34.446 175.963 34.8039C175.635 35.1526 175.182 35.4031 174.604 35.5552C174.038 35.6999 173.341 35.6978 172.514 35.549Z" fill="#FF8500"/>
<path d="M159.218 35.9021C158.556 35.7831 157.94 35.5726 157.368 35.2706C156.797 34.9686 156.355 34.6046 156.043 34.1786L156.673 33.5238C156.958 33.8881 157.333 34.2021 157.798 34.4659C158.27 34.7405 158.786 34.9282 159.346 35.0291C160.265 35.1943 160.979 35.1 161.488 34.7459C161.996 34.401 162.331 33.7785 162.493 32.8783L162.818 31.0733L163.179 29.858L163.305 28.6005L163.7 26.4097L164.636 26.5783L163.494 32.9303C163.269 34.1796 162.797 35.0382 162.077 35.5062C161.365 35.985 160.412 36.117 159.218 35.9021ZM159.582 32.8523C158.893 32.7284 158.299 32.4698 157.801 32.0767C157.304 31.6744 156.943 31.1779 156.717 30.5873C156.501 29.9983 156.455 29.3594 156.579 28.6705C156.703 27.9815 156.968 27.4033 157.374 26.936C157.792 26.461 158.302 26.1262 158.906 25.9314C159.511 25.7366 160.157 25.7012 160.846 25.8252C161.489 25.9409 162.044 26.1782 162.51 26.5371C162.977 26.8961 163.314 27.3646 163.523 27.9427C163.732 28.5209 163.769 29.1866 163.633 29.9398C163.498 30.693 163.231 31.3042 162.834 31.7732C162.437 32.2423 161.956 32.5683 161.392 32.7513C160.828 32.9344 160.225 32.968 159.582 32.8523ZM159.834 32.0016C160.367 32.0975 160.86 32.0724 161.313 31.9263C161.768 31.771 162.15 31.5174 162.46 31.1653C162.771 30.8041 162.974 30.3617 163.068 29.8382C163.163 29.3146 163.126 28.8338 162.958 28.3958C162.79 27.9579 162.52 27.5915 162.146 27.2966C161.774 26.9926 161.321 26.7927 160.789 26.6968C160.265 26.6026 159.771 26.6323 159.308 26.7859C158.854 26.932 158.473 27.181 158.163 27.5331C157.862 27.8867 157.665 28.3254 157.571 28.849C157.477 29.3725 157.508 29.8571 157.665 30.3026C157.833 30.7406 158.102 31.1115 158.475 31.4156C158.857 31.7121 159.311 31.9074 159.834 32.0016Z" fill="#FF8500"/>
<path d="M152.32 24.2911C152.908 24.3969 153.402 24.6043 153.801 24.9133C154.212 25.2147 154.5 25.6174 154.665 26.1213C154.84 26.6269 154.864 27.2287 154.738 27.9269L153.982 32.1294L153.004 31.9533L153.743 27.8473C153.88 27.0849 153.79 26.476 153.474 26.0208C153.168 25.5581 152.671 25.2647 151.982 25.1407C151.468 25.0482 150.999 25.0728 150.575 25.2147C150.162 25.349 149.814 25.5947 149.532 25.9516C149.26 26.3011 149.075 26.7514 148.976 27.3025L148.292 31.1055L147.313 30.9294L148.615 23.6956L149.552 23.8642L149.195 25.8483L149.11 25.449C149.434 24.9668 149.875 24.6241 150.433 24.4211C150.993 24.2088 151.622 24.1655 152.32 24.2911Z" fill="#FF8500"/>
<path d="M143.613 30.2635L144.915 23.0297L145.893 23.2057L144.591 30.4395L143.613 30.2635ZM145.698 21.5206C145.496 21.4842 145.339 21.3847 145.226 21.2222C145.113 21.0596 145.073 20.8818 145.108 20.6889C145.143 20.496 145.241 20.3477 145.402 20.2439C145.564 20.1309 145.746 20.0926 145.949 20.1289C146.151 20.1653 146.309 20.2602 146.424 20.4136C146.538 20.5669 146.578 20.7401 146.544 20.933C146.507 21.1351 146.408 21.2926 146.245 21.4056C146.092 21.5203 145.909 21.5586 145.698 21.5206Z" fill="#FF8500"/>
<path d="M139.353 21.9579C139.941 22.0637 140.43 22.2702 140.82 22.5775C141.222 22.8773 141.5 23.2784 141.656 23.7806C141.822 24.2846 141.842 24.8856 141.716 25.5837L140.96 29.7862L139.982 29.6102L140.72 25.5041C140.858 24.7417 140.777 24.1345 140.479 23.6826C140.192 23.2232 139.718 22.9339 139.056 22.8149C138.56 22.7257 138.11 22.7536 137.704 22.8988C137.31 23.0364 136.976 23.2846 136.702 23.6432C136.44 23.9943 136.259 24.4454 136.16 24.9966L135.476 28.7995L134.498 28.6235L135.237 24.5174C135.374 23.755 135.293 23.1478 134.995 22.6959C134.699 22.2348 134.22 21.9447 133.559 21.8257C133.072 21.7381 132.626 21.7669 132.22 21.9121C131.816 22.0481 131.478 22.2954 131.205 22.654C130.942 23.0051 130.762 23.4562 130.663 24.0074L129.978 27.8103L129 27.6343L130.302 20.4004L131.239 20.569L130.886 22.5256L130.797 22.1539C131.112 21.6699 131.539 21.3248 132.079 21.1185C132.629 20.9046 133.24 20.858 133.91 20.9786C134.618 21.1059 135.187 21.3933 135.619 21.8408C136.052 22.2791 136.278 22.8651 136.298 23.5989L135.939 23.3779C136.256 22.828 136.714 22.4219 137.311 22.1595C137.919 21.8896 138.6 21.8224 139.353 21.9579Z" fill="#FF8500"/>
<path d="M122.679 26.0336C121.981 25.908 121.38 25.6386 120.876 25.2254C120.382 24.8048 120.024 24.2899 119.802 23.6809C119.581 23.0628 119.536 22.3954 119.664 21.6789C119.795 20.9532 120.071 20.3438 120.491 19.8504C120.912 19.3571 121.426 19.0039 122.033 18.7908C122.641 18.5776 123.298 18.5347 124.005 18.6619C124.722 18.7909 125.328 19.0611 125.823 19.4725C126.327 19.8857 126.685 20.3959 126.898 21.0033C127.121 21.6123 127.167 22.2796 127.036 23.0053C126.907 23.7218 126.632 24.3313 126.209 24.8338C125.798 25.3287 125.283 25.6865 124.665 25.9072C124.048 26.1187 123.386 26.1608 122.679 26.0336ZM122.835 25.1655C123.359 25.2597 123.843 25.2284 124.289 25.0714C124.736 24.9053 125.112 24.6317 125.418 24.2504C125.735 23.8617 125.943 23.3871 126.044 22.8268C126.147 22.2573 126.116 21.7397 125.954 21.2742C125.8 20.8104 125.542 20.4272 125.179 20.1249C124.818 19.8133 124.38 19.6113 123.865 19.5187C123.351 19.4261 122.87 19.4629 122.423 19.629C121.978 19.786 121.597 20.0542 121.283 20.4338C120.968 20.8134 120.759 21.2879 120.657 21.8574C120.556 22.4178 120.586 22.9353 120.747 23.41C120.91 23.8755 121.172 24.264 121.533 24.5756C121.896 24.878 122.33 25.0746 122.835 25.1655Z" fill="#FF8500"/>
<path d="M113.043 24.7178C112.317 24.5873 111.668 24.3472 111.096 23.9976C110.525 23.6389 110.054 23.1986 109.683 22.6766C109.313 22.1547 109.052 21.5721 108.903 20.9288C108.762 20.287 108.755 19.6125 108.883 18.9052C109.01 18.1979 109.251 17.568 109.607 17.0156C109.971 16.4648 110.418 16.0094 110.948 15.6495C111.486 15.2912 112.085 15.048 112.743 14.9199C113.403 14.7826 114.096 14.7793 114.822 14.9099C115.52 15.0355 116.155 15.2731 116.728 15.6226C117.302 15.963 117.758 16.4055 118.096 16.95L117.332 17.481C117.01 17.0058 116.626 16.6379 116.18 16.3775C115.735 16.1078 115.237 15.9234 114.686 15.8242C114.107 15.7201 113.552 15.7244 113.019 15.8373C112.488 15.9409 112.006 16.1434 111.573 16.4447C111.141 16.7369 110.776 17.1074 110.477 17.5562C110.189 17.9975 109.993 18.5075 109.888 19.0862C109.784 19.6649 109.789 20.2159 109.904 20.7391C110.029 21.2548 110.243 21.7294 110.544 22.1629C110.847 22.5873 111.228 22.9451 111.688 23.2365C112.149 23.5186 112.669 23.7118 113.248 23.8159C113.799 23.9151 114.33 23.9158 114.841 23.818C115.351 23.7202 115.841 23.5048 116.308 23.1717L116.839 23.9358C116.333 24.3282 115.75 24.5885 115.092 24.7166C114.433 24.8447 113.75 24.8451 113.043 24.7178Z" fill="#FF8500"/>
<defs>
<filter id="filter0_dd_141_23" x="0" y="23" width="166" height="54" filterUnits="userSpaceOnUse" color-interpolation-filters="sRGB">
<feFlood flood-opacity="0" result="BackgroundImageFix"/>
<feColorMatrix in="SourceAlpha" type="matrix" values="0 0 0 0 0 0 0 0 0 0 0 0 0 0 0 0 0 0 127 0" result="hardAlpha"/>
<feOffset dy="4"/>
<feGaussianBlur stdDeviation="4.5"/>
<feColorMatrix type="matrix" values="0 0 0 0 0.0901961 0 0 0 0 0.101961 0 0 0 0 0.121569 0 0 0 0.11 0"/>
<feBlend mode="normal" in2="BackgroundImageFix" result="effect1_dropShadow_141_23"/>
<feColorMatrix in="SourceAlpha" type="matrix" values="0 0 0 0 0 0 0 0 0 0 0 0 0 0 0 0 0 0 127 0" result="hardAlpha"/>
<feOffset/>
<feGaussianBlur stdDeviation="1"/>
<feColorMatrix type="matrix" values="0 0 0 0 0.0901961 0 0 0 0 0.101961 0 0 0 0 0.121569 0 0 0 0.12 0"/>
<feBlend mode="normal" in2="effect1_dropShadow_141_23" result="effect2_dropShadow_141_23"/>
<feBlend mode="normal" in="SourceGraphic" in2="effect2_dropShadow_141_23" result="shape"/>
</filter>
<filter id="filter1_dd_141_23" x="91.6445" y="0.644531" width="131.545" height="62.1335" filterUnits="userSpaceOnUse" color-interpolation-filters="sRGB">
<feFlood flood-opacity="0" result="BackgroundImageFix"/>
<feColorMatrix in="SourceAlpha" type="matrix" values="0 0 0 0 0 0 0 0 0 0 0 0 0 0 0 0 0 0 127 0" result="hardAlpha"/>
<feOffset dy="4"/>
<feGaussianBlur stdDeviation="4.5"/>
<feColorMatrix type="matrix" values="0 0 0 0 0.0901961 0 0 0 0 0.101961 0 0 0 0 0.121569 0 0 0 0.11 0"/>
<feBlend mode="normal" in2="BackgroundImageFix" result="effect1_dropShadow_141_23"/>
<feColorMatrix in="SourceAlpha" type="matrix" values="0 0 0 0 0 0 0 0 0 0 0 0 0 0 0 0 0 0 127 0" result="hardAlpha"/>
<feOffset/>
<feGaussianBlur stdDeviation="1"/>
<feColorMatrix type="matrix" values="0 0 0 0 0.0901961 0 0 0 0 0.101961 0 0 0 0 0.121569 0 0 0 0.12 0"/>
<feBlend mode="normal" in2="effect1_dropShadow_141_23" result="effect2_dropShadow_141_23"/>
<feBlend mode="normal" in="SourceGraphic" in2="effect2_dropShadow_141_23" result="shape"/>
</filter>
<clipPath id="clip0_141_23">
<rect width="16" height="16" fill="white" transform="translate(29.5 38)"/>
</clipPath>
</defs>
</svg>
